<svg id="Objects" xmlns="http://www.w3.org/2000/svg" viewBox="0 0 31.71 31.71"><defs><style>.cls-1{fill:#fff;}</style></defs><title>header-icon-4</title><path class="cls-1" d="M464,213.77h-2.13c-.1,0-.21-.06-.31-.07A15.84,15.84,0,0,1,449.91,207a15.34,15.34,0,0,1-2.69-6.95c0-.34-.1-.68-.15-1v-2.13a1.6,1.6,0,0,0,.05-.21c.1-.65.15-1.31.29-1.95a15.64,15.64,0,0,1,2.67-6.06,16.06,16.06,0,0,1,3.81-3.73,15.34,15.34,0,0,1,6.95-2.69l1-.15H464l.21.06c.75.11,1.51.19,2.25.35a15.19,15.19,0,0,1,5.73,2.59,16.17,16.17,0,0,1,3.93,4.07,15.36,15.36,0,0,1,2.51,6.66c.05.35.11.71.16,1.06V199a1.86,1.86,0,0,0-.07.34,15.93,15.93,0,0,1-7.7,12.23,15.48,15.48,0,0,1-6,2.07Zm-2.14-16.93v-4.19h-5.58c-.16,0-.2.07-.22.21-.1.56-.22,1.12-.3,1.69-.09.76-.15,1.52-.22,2.31ZM464,199v4.19l.11,0h5.47c.14,0,.2,0,.22-.18.08-.49.2-1,.26-1.47.1-.84.18-1.69.27-2.56Zm-8.43,0a.81.81,0,0,0,0,.09,26.17,26.17,0,0,0,.48,3.84c0,.21.12.28.34.28h5.21l.27,0V199Zm8.43-2.15h6.3a23.1,23.1,0,0,0-.55-4.18H464Zm-2.15,14.68c0-.08,0-.12,0-.16,0-1.94,0-3.88,0-5.83,0-.18-.07-.22-.24-.22H457l-.27,0c.24.57.45,1.11.69,1.63a9.85,9.85,0,0,0,2.54,3.49A5,5,0,0,0,461.85,211.52Zm0-27.23c-.34.14-.63.24-.89.37a7.29,7.29,0,0,0-2.74,2.63,13.07,13.07,0,0,0-1.33,2.64c-.07.18-.13.37-.21.59h4.88c.24,0,.29-.08.29-.3,0-1.86,0-3.72,0-5.57Zm2.13,0c0,.1,0,.17,0,.23,0,1.91,0,3.82,0,5.73,0,.21.07.25.26.25h4.66l.22,0a.28.28,0,0,0,0-.1,13.66,13.66,0,0,0-1.72-3.41,7.75,7.75,0,0,0-1.7-1.82A4.72,4.72,0,0,0,464,184.32Zm0,27.2a5,5,0,0,0,2-1.08,10.07,10.07,0,0,0,2.52-3.47c.24-.53.45-1.06.7-1.64l-.3,0h-4.61c-.24,0-.29.08-.29.3,0,1.87,0,3.74,0,5.62ZM453.9,192.65h-3.52a.31.31,0,0,0-.21.16c-.27.93-.55,1.86-.78,2.8a10.09,10.09,0,0,0-.16,1.23h4.15C453.55,195.43,453.72,194.05,453.9,192.65Zm18.05,0c.18,1.41.35,2.8.52,4.19h4.14c0-.31-.05-.6-.09-.88a13.1,13.1,0,0,0-.86-3.19.32.32,0,0,0-.24-.13H472ZM449.24,199c0,.31,0,.6.09.89a14,14,0,0,0,.82,3.1.28.28,0,0,0,.32.22h3.43c-.18-1.41-.35-2.8-.52-4.2ZM472,203.18h3.52a.27.27,0,0,0,.2-.16c.28-.93.55-1.85.79-2.79a10.25,10.25,0,0,0,.16-1.24h-4.15C472.3,200.4,472.13,201.78,472,203.18Zm-15.06-17.55a13.39,13.39,0,0,0-5.53,4.86l.23,0h2.73c.15,0,.21-.05.26-.2a18.07,18.07,0,0,1,1.54-3.45C456.37,186.45,456.63,186,456.89,185.63Zm17.6,19.71-.14,0h-2.84c-.15,0-.2.07-.24.2a18.55,18.55,0,0,1-1.9,4.06l-.42.63A13.28,13.28,0,0,0,474.49,205.34Zm-17.64,4.9,0-.05-.35-.51a17.54,17.54,0,0,1-1.95-4.13.29.29,0,0,0-.34-.24h-2.63l-.27,0A13.8,13.8,0,0,0,456.85,210.24Zm12.1-24.6.36.53a18.07,18.07,0,0,1,1.95,4.12.29.29,0,0,0,.32.24h2.65l.26,0A13.14,13.14,0,0,0,469,185.64Z" transform="translate(-447.07 -182.06)"/></svg>