<?xml version="1.0" encoding="utf-8"?>
<!-- Generator: Adobe Illustrator 22.1.0, SVG Export Plug-In . SVG Version: 6.00 Build 0)  -->
<svg version="1.1" id="Layer_1" xmlns="http://www.w3.org/2000/svg" xmlns:xlink="http://www.w3.org/1999/xlink" x="0px" y="0px"
	 viewBox="0 0 512 512" style="enable-background:new 0 0 512 512;" xml:space="preserve">
<style type="text/css">
	.st0{fill:#FFFFFF;}
</style>
<g>
	<g>
		<path class="st0" d="M256,303.2c-53.7,0-97.5,43.7-97.5,97.5c0,30.5,14.1,57.8,36.2,75.7c0.4,0.4,0.9,0.8,1.4,1.1
			c16.5,12.9,37.4,20.7,60,20.7s43.4-7.7,60-20.7c0.5-0.3,0.9-0.7,1.4-1.1c22-17.9,36.2-45.2,36.2-75.7
			C353.5,346.9,309.7,303.2,256,303.2z M256,478.2c-15.8,0-30.5-4.8-42.8-12.9c6.6-16.9,23.6-28.6,42.8-28.6s36.2,11.7,42.8,28.6
			C286.5,473.4,271.8,478.2,256,478.2z M238.4,400.7c0-8.8,7.1-15.9,15.9-15.9c8.8,0,15.9,7.1,15.9,15.9c0,8.8-7.1,15.9-15.9,15.9
			C245.5,416.6,238.4,409.5,238.4,400.7z M314.4,451.4c-6.8-12.9-18-23.2-31.5-29.1c4.6-6,7.3-13.5,7.3-21.7
			c0-19.8-16.1-35.9-35.9-35.9c-19.8,0-35.9,16.1-35.9,35.9c0,8.7,3.1,16.6,8.2,22.8c-12.3,6.1-22.6,15.9-29,28
			c-11.8-13.6-19-31.4-19-50.8c0-42.7,34.8-77.5,77.5-77.5s77.5,34.8,77.5,77.5C333.5,420.1,326.3,437.8,314.4,451.4z"/>
	</g>
</g>
<g>
	<g>
		<path class="st0" d="M97.5,13.8C43.7,13.8,0,57.6,0,111.3c0,30.5,14.1,57.8,36.2,75.7c0.4,0.4,0.9,0.8,1.4,1.1
			c16.5,12.9,37.4,20.7,60,20.7c22.6,0,43.4-7.7,60-20.7c0.5-0.3,0.9-0.7,1.4-1.1c22-17.9,36.2-45.2,36.2-75.7
			C194.9,57.6,151.2,13.8,97.5,13.8z M97.5,188.8c-15.8,0-30.5-4.8-42.8-12.9c6.6-16.9,23.6-28.6,42.8-28.6
			c19.2,0,36.2,11.7,42.8,28.6C128,184,113.3,188.8,97.5,188.8z M79.9,111.3c0-8.8,7.1-15.9,15.9-15.9c8.8,0,15.9,7.1,15.9,15.9
			c0,8.8-7.1,15.9-15.9,15.9C87,127.2,79.9,120.1,79.9,111.3z M155.9,162.1c-6.8-12.9-18-23.2-31.5-29.1c4.6-6,7.3-13.5,7.3-21.6
			c0-19.8-16.1-35.9-35.9-35.9c-19.8,0-35.9,16.1-35.9,35.9c0,8.6,3.1,16.6,8.2,22.8c-12.3,6.1-22.6,15.9-29,28
			c-11.8-13.6-19-31.4-19-50.8c0-42.7,34.8-77.5,77.5-77.5c42.7,0,77.5,34.8,77.5,77.5C174.9,130.7,167.7,148.5,155.9,162.1z"/>
	</g>
</g>
<g>
	<g>
		<path class="st0" d="M414.5,13.8c-53.7,0-97.5,43.7-97.5,97.5c0,30.5,14.1,57.8,36.2,75.7c0.4,0.4,0.9,0.8,1.3,1.1
			c16.5,12.9,37.4,20.7,60,20.7c22.6,0,43.4-7.7,60-20.7c0.5-0.3,0.9-0.7,1.4-1.1c22-17.9,36.2-45.2,36.2-75.7
			C512,57.6,468.3,13.8,414.5,13.8z M414.5,188.8c-15.8,0-30.5-4.8-42.8-12.9c6.6-16.9,23.6-28.6,42.8-28.6
			c19.2,0,36.2,11.7,42.8,28.6C445.1,184,430.3,188.8,414.5,188.8z M396.9,111.3c0-8.8,7.1-15.9,15.9-15.9c8.8,0,15.9,7.1,15.9,15.9
			c0,8.8-7.1,15.9-15.9,15.9C404.1,127.2,396.9,120.1,396.9,111.3z M473,162.1c-6.8-12.9-18-23.2-31.5-29.1c4.6-6,7.3-13.5,7.3-21.6
			c0-19.8-16.1-35.9-35.9-35.9c-19.8,0-35.9,16.1-35.9,35.9c0,8.6,3.1,16.6,8.2,22.8c-12.3,6.1-22.6,15.9-29,28
			c-11.8-13.6-19-31.4-19-50.8c0-42.7,34.8-77.5,77.5-77.5c42.7,0,77.5,34.8,77.5,77.5C492,130.7,484.8,148.5,473,162.1z"/>
	</g>
</g>
<g>
	<g>
		<path class="st0" d="M141,355.4c0,0-0.1-0.1-0.1-0.1c-4.2-3.6-10.5-3-14.1,1.2c-3.5,4.2-3,10.4,1.1,14c0,0,0.1,0.1,0.1,0.1
			c1.9,1.6,4.2,2.4,6.5,2.4c2.8,0,5.7-1.2,7.6-3.5C145.6,365.3,145.1,359,141,355.4z"/>
	</g>
</g>
<g>
	<g>
		<path class="st0" d="M121.5,335.4c0,0-0.1-0.1-0.1-0.1c-3.6-4.2-9.8-4.7-14-1.2c-4.2,3.5-4.8,9.8-1.3,14.1l0,0
			c2,2.4,4.8,3.6,7.7,3.6c2.2,0,4.5-0.8,6.4-2.3C124.4,345.9,125,339.6,121.5,335.4z"/>
	</g>
</g>
<g>
	<g>
		<path class="st0" d="M105.3,312.4c0,0-0.1-0.2-0.1-0.2c-2.9-4.7-9-6.3-13.7-3.4c-4.7,2.9-6.3,9-3.4,13.7l0,0
			c1.9,3.2,5.2,4.9,8.6,4.9c1.7,0,3.5-0.4,5-1.4C106.4,323.3,108,317.2,105.3,312.4z"/>
	</g>
</g>
<g>
	<g>
		<path class="st0" d="M84.5,260.3c-1.2-5.4-6.5-8.8-11.9-7.7c-5.4,1.2-8.8,6.5-7.7,11.9c0,0,0,0.2,0,0.2c1.1,4.6,5.2,7.8,9.7,7.8
			c0.7,0,1.5-0.1,2.2-0.3C82.4,271,85.7,265.7,84.5,260.3z"/>
	</g>
</g>
<g>
	<g>
		<path class="st0" d="M92.8,287.2c0,0-0.1-0.1-0.1-0.1c-2.1-5.1-7.9-7.6-13-5.5c-5.1,2.1-7.6,7.9-5.5,13l0,0
			c1.6,3.9,5.3,6.3,9.3,6.3c1.2,0,2.5-0.2,3.7-0.7C92.3,298.1,94.8,292.3,92.8,287.2z"/>
	</g>
</g>
<g>
	<g>
		<path class="st0" d="M385.2,356.5c-3.6-4.2-9.9-4.7-14.1-1.2c0,0-0.1,0.1-0.1,0.1c-4.1,3.6-4.6,9.8-1.1,14c2,2.3,4.8,3.5,7.6,3.5
			c2.3,0,4.6-0.8,6.5-2.4c0,0,0.1-0.1,0.1-0.1C388.3,367,388.8,360.7,385.2,356.5z"/>
	</g>
</g>
<g>
	<g>
		<path class="st0" d="M432.3,281.5c-5.1-2.1-10.9,0.4-13,5.5c0,0,0,0.1-0.1,0.1c-2,5.1,0.5,10.9,5.6,12.9c1.2,0.5,2.5,0.7,3.7,0.7
			c4,0,7.8-2.4,9.3-6.3C439.9,289.4,437.4,283.6,432.3,281.5z"/>
	</g>
</g>
<g>
	<g>
		<path class="st0" d="M404.7,334c-4.2-3.6-10.5-3-14.1,1.2c0,0-0.1,0.1-0.1,0.1c-3.5,4.2-2.9,10.5,1.3,14c1.9,1.6,4.1,2.3,6.4,2.3
			c2.9,0,5.7-1.2,7.7-3.6C409.5,343.9,409,337.6,404.7,334z"/>
	</g>
</g>
<g>
	<g>
		<path class="st0" d="M439.4,252.7c-5.4-1.2-10.7,2.2-11.9,7.6l0,0c-1.2,5.4,2.1,10.7,7.5,12c0.7,0.2,1.5,0.3,2.2,0.3
			c4.6,0,8.7-3.1,9.7-7.8c0,0,0-0.2,0-0.2C448.2,259.1,444.8,253.9,439.4,252.7z"/>
	</g>
</g>
<g>
	<g>
		<path class="st0" d="M420.6,308.9c-4.7-2.9-10.9-1.3-13.7,3.4c0,0-0.1,0.2-0.1,0.2c-2.8,4.8-1.2,10.9,3.6,13.7
			c1.6,0.9,3.3,1.4,5.1,1.4c3.4,0,6.8-1.8,8.6-4.9C426.8,317.9,425.3,311.7,420.6,308.9z"/>
	</g>
</g>
<g>
	<g>
		<path class="st0" d="M442,223.1c-5.5-0.3-10.2,3.9-10.5,9.4c0,0,0,0,0,0c-0.3,5.5,3.9,10.2,9.4,10.5c0.2,0,0.4,0,0.6,0
			c5.3,0,9.7-4.1,10-9.5C451.7,228.1,447.5,223.4,442,223.1z"/>
	</g>
</g>
<g>
	<g>
		<path class="st0" d="M318.2,31.9L318.2,31.9c-5.4-1.7-11,1.2-12.7,6.4c-1.7,5.3,1.2,10.9,6.4,12.6l0.1,0c1,0.3,2.1,0.5,3.1,0.5
			c4.2,0,8.1-2.7,9.5-6.9C326.4,39.3,323.5,33.6,318.2,31.9z"/>
	</g>
</g>
<g>
	<g>
		<path class="st0" d="M287.5,24.7l-0.3,0c-5.5-0.8-10.6,3-11.4,8.4c-0.8,5.5,2.9,10.5,8.4,11.3c0.5,0.1,1.1,0.1,1.6,0.1
			c4.8,0,9.1-3.5,9.9-8.4C296.6,30.7,292.9,25.6,287.5,24.7z"/>
	</g>
</g>
<g>
	<g>
		<path class="st0" d="M255.9,22.4l-0.2,0c-5.5,0.1-10,4.6-9.9,10.1c0.1,5.5,4.5,9.9,10,9.9c0,0,0.1,0,0.1,0c5.5,0,10-4.5,10-10
			C265.9,26.9,261.4,22.4,255.9,22.4z"/>
	</g>
</g>
<g>
	<g>
		<path class="st0" d="M206.1,38.6c-1.6-5.3-7.2-8.3-12.5-6.7l-0.1,0c-5.3,1.6-8.2,7.2-6.6,12.5c1.3,4.3,5.3,7.1,9.6,7.1
			c1,0,2-0.1,3-0.4C204.7,49.5,207.7,43.9,206.1,38.6z"/>
	</g>
</g>
<g>
	<g>
		<path class="st0" d="M235.8,33.5c-0.9-5.5-6-9.2-11.4-8.3l1.5,9.9l-1.5-9.9c-5.5,0.8-9.2,5.9-8.4,11.4c0.7,5,5,8.5,9.9,8.5
			c0.5,0,1,0,1.5-0.1c0,0,0.2,0,0.2,0C233,44.1,236.7,38.9,235.8,33.5z"/>
	</g>
</g>
<g>
	<g>
		<path class="st0" d="M80.4,230.3c-1.2-5.4-6.5-8.8-11.9-7.7c-5.4,1.2-8.8,6.5-7.7,11.9c0,0,0,0.2,0,0.2c1.1,4.6,5.2,7.8,9.7,7.8
			c0.7,0,1.5-0.1,2.2-0.3C78.2,241.1,81.6,235.7,80.4,230.3z"/>
	</g>
</g>
</svg>
