<?xml version="1.0" encoding="utf-8"?>
<!-- Generator: Adobe Illustrator 22.1.0, SVG Export Plug-In . SVG Version: 6.00 Build 0)  -->
<svg version="1.1" id="Layer_1" xmlns="http://www.w3.org/2000/svg" xmlns:xlink="http://www.w3.org/1999/xlink" x="0px" y="0px"
	 viewBox="0 0 512 512" style="enable-background:new 0 0 512 512;" xml:space="preserve">
<style type="text/css">
	.st0{fill:#FFFFFF;}
</style>
<g>
	<g>
		<path class="st0" d="M497.1,78.7l-33.9-28.6c-1.8-1.5-4.1-2.4-6.4-2.4H302.7V27c0-14.9-12.1-27-27-27h-39c-14.9,0-27,12.1-27,27
			v20.8h-53.1c-5.5,0-10,4.5-10,10v79.6c0,5.5,4.5,10,10,10h53.1v30.1H55.3c-2.4,0-4.6,0.8-6.4,2.4l-33.9,28.6
			c-5.6,4.7-8.8,11.6-8.8,18.9c0,7.3,3.2,14.2,8.8,18.9l33.9,28.6c1.8,1.5,4.1,2.4,6.4,2.4h154.4V492h-40.8c-5.5,0-10,4.5-10,10
			s4.5,10,10,10h174.6c5.5,0,10-4.5,10-10s-4.5-10-10-10h-40.8V350.9c0-5.5-4.5-10-10-10c-5.5,0-10,4.5-10,10V492h-53V277.2h125.8
			c5.5,0,10-4.5,10-10v-79.6c0-5.5-4.5-10-10-10h-52.8v-30.1h154.1c2.4,0,4.6-0.8,6.4-2.4l33.9-28.6c5.6-4.7,8.8-11.6,8.8-18.9
			C505.9,90.3,502.7,83.4,497.1,78.7z M229.6,27L229.6,27c0-3.9,3.2-7,7-7h39c3.9,0,7,3.2,7,7v20.8h-53V27z M345.5,197.5v59.6H58.9
			L27.8,231c-1.5-1.2-1.7-2.8-1.7-3.6c0-0.8,0.2-2.4,1.7-3.6l31.1-26.2H345.5L345.5,197.5z M229.6,177.5v-30.1h53v30.1H229.6z
			 M484.2,101.2l-31.1,26.2H220.7c-0.3,0-0.7-0.1-1-0.1c-0.3,0-0.7,0-1,0.1h-52.1V67.8h286.5L484.2,94c1.5,1.2,1.7,2.8,1.7,3.6
			C485.9,98.4,485.6,100,484.2,101.2z"/>
	</g>
</g>
</svg>
