<?xml version="1.0" encoding="utf-8"?>
<!-- Generator: Adobe Illustrator 22.1.0, SVG Export Plug-In . SVG Version: 6.00 Build 0)  -->
<svg version="1.1" id="Layer_1" xmlns="http://www.w3.org/2000/svg" xmlns:xlink="http://www.w3.org/1999/xlink" x="0px" y="0px"
	 viewBox="0 0 204 44" style="enable-background:new 0 0 204 44;" xml:space="preserve">
<style type="text/css">
	.st0{fill:#FFFFFF;}
</style>
<g>
	<path class="st0" d="M91.9,18.1v6.7c0,0.3,0.2,0.5,0.5,0.5c0.3,0,0.5-0.2,0.5-0.5v-6.7c1-0.2,1.8-1.1,1.8-2.2c0-1.3-1-2.3-2.3-2.3
		c-1.3,0-2.3,1-2.3,2.3C90.1,16.9,90.9,17.8,91.9,18.1z M92.4,14.6c0.7,0,1.3,0.6,1.3,1.3c0,0.7-0.6,1.3-1.3,1.3
		c-0.7,0-1.3-0.6-1.3-1.3C91.1,15.1,91.6,14.6,92.4,14.6z"/>
	<path class="st0" d="M95.3,14.8c0.1,0,0.2,0,0.2-0.1l5.1-2.7c0.4,0.4,0.9,0.7,1.5,0.7c1.1,0,2-0.9,2-2c0-1.1-0.9-2-2-2
		c-1.1,0-2,0.9-2,2c0,0.2,0,0.3,0.1,0.5l-5.1,2.7c-0.2,0.1-0.3,0.4-0.2,0.7C94.9,14.7,95.1,14.8,95.3,14.8z M102.1,9.7
		c0.6,0,1.1,0.5,1.1,1.1c0,0.6-0.5,1.1-1.1,1.1c-0.6,0-1.1-0.5-1.1-1.1C101,10.1,101.5,9.7,102.1,9.7z"/>
	<path class="st0" d="M99.2,31.4l-4.9-3c0.1-0.2,0.1-0.4,0.1-0.6c0-1.1-0.9-2-2-2c-1.1,0-2,0.9-2,2c0,1.1,0.9,2,2,2
		c0.6,0,1.1-0.2,1.4-0.6l4.9,3c0.1,0,0.2,0.1,0.3,0.1c0.2,0,0.3-0.1,0.4-0.2C99.5,31.9,99.5,31.6,99.2,31.4z M92.4,28.9
		c-0.6,0-1.1-0.5-1.1-1.1c0-0.6,0.5-1.1,1.1-1.1c0.6,0,1.1,0.5,1.1,1.1C93.5,28.4,93,28.9,92.4,28.9z"/>
	<path class="st0" d="M112,25.6v-6.7c0-0.3-0.2-0.5-0.5-0.5c-0.3,0-0.5,0.2-0.5,0.5v6.7c-1,0.2-1.8,1.1-1.8,2.2c0,1.2,1,2.3,2.3,2.3
		c1.3,0,2.3-1,2.3-2.3C113.8,26.8,113,25.9,112,25.6z M111.5,29.1c-0.7,0-1.3-0.6-1.3-1.3c0-0.7,0.6-1.3,1.3-1.3
		c0.7,0,1.3,0.6,1.3,1.3C112.8,28.6,112.3,29.1,111.5,29.1z"/>
	<path class="st0" d="M108.3,28.9l-4.8,3c-0.4-0.3-0.9-0.6-1.4-0.6c-1.1,0-2,0.9-2,2c0,1.1,0.9,2,2,2c1.1,0,2-0.9,2-2
		c0-0.2,0-0.4-0.1-0.6l4.8-3c0.2-0.1,0.3-0.4,0.2-0.7C108.8,28.9,108.5,28.8,108.3,28.9z M102,34.5c-0.6,0-1.1-0.5-1.1-1.1
		s0.5-1.1,1.1-1.1c0.6,0,1.1,0.5,1.1,1.1S102.6,34.5,102,34.5z"/>
	<path class="st0" d="M104.7,12.5l4.9,2.9c-0.1,0.2-0.1,0.4-0.1,0.6c0,1.1,0.9,2,2,2c1.1,0,2-0.9,2-2c0-1.1-0.9-2-2-2
		c-0.6,0-1.1,0.2-1.4,0.6l-4.9-2.9c-0.2-0.1-0.5-0.1-0.7,0.2C104.4,12,104.5,12.3,104.7,12.5z M111.6,14.9c0.6,0,1.1,0.5,1.1,1.1
		c0,0.6-0.5,1.1-1.1,1.1c-0.6,0-1.1-0.5-1.1-1.1C110.5,15.4,111,14.9,111.6,14.9z"/>
	<path class="st0" d="M109,25.2l-2-1c0,0,0,0,0,0c0.3-0.7,0.5-1.5,0.5-2.3c0-0.9-0.2-1.8-0.6-2.5l2-1.2c0.2-0.1,0.2-0.3,0.1-0.5l0,0
		c-0.1-0.2-0.3-0.2-0.5-0.1l-2,1.2c-0.9-1.3-2.4-2.1-4-2.3v-2.4c0-0.2-0.2-0.3-0.3-0.3h0c-0.2,0-0.3,0.2-0.3,0.3v2.4
		c-1.8,0.1-3.3,1.1-4.2,2.5l-2-1.2c-0.2-0.1-0.4,0-0.5,0.1l0,0c-0.1,0.2,0,0.4,0.1,0.5l2,1.2c-0.3,0.7-0.5,1.5-0.5,2.3
		c0,0.7,0.1,1.4,0.4,2.1l-1.9,1.3c-0.2,0.1-0.2,0.3-0.1,0.5l0,0c0.1,0.2,0.3,0.2,0.5,0.1l1.9-1.2c0.9,1.5,2.5,2.5,4.3,2.7v2.3
		c0,0.2,0.2,0.3,0.3,0.3h0c0.2,0,0.3-0.2,0.3-0.3v-2.3c1.7-0.1,3.3-1.1,4.2-2.5c0,0,0,0,0,0l2,1c0.2,0.1,0.4,0,0.5-0.1l0,0
		C109.2,25.5,109.1,25.3,109,25.2z M106,18.8c0.6,0.8,1,1.8,1,2.8h-2.2c0-0.8-0.1-1.6-0.3-2.3C105.1,19.2,105.6,19,106,18.8z
		 M105.7,18.5c-0.4,0.2-0.8,0.4-1.3,0.5c-0.3-0.8-0.6-1.5-1.1-1.9C104.3,17.3,105.1,17.8,105.7,18.5z M101.9,22v2
		c-0.7,0-1.3,0.1-1.9,0.2c-0.2-0.7-0.3-1.4-0.3-2.2H101.9z M99.7,21.6c0-0.8,0.1-1.5,0.3-2.2c0.6,0.1,1.2,0.2,1.9,0.2v1.9L99.7,21.6
		L99.7,21.6z M102.3,22h2.2c0,0.8-0.1,1.5-0.3,2.2c-0.6-0.1-1.2-0.2-1.9-0.2L102.3,22L102.3,22z M102.3,21.6v-2
		c0.7,0,1.3-0.1,1.9-0.2c0.2,0.7,0.3,1.4,0.3,2.2H102.3z M104,19c-0.5,0.1-1.1,0.2-1.7,0.2v-2.3C103,17,103.7,17.8,104,19z
		 M101.9,16.9v2.3c-0.6,0-1.2-0.1-1.7-0.2C100.5,17.8,101.2,17,101.9,16.9z M100.8,17c-0.4,0.4-0.8,1.1-1.1,1.9
		c-0.5-0.1-0.9-0.3-1.3-0.5C99.1,17.8,99.9,17.3,100.8,17z M98.2,18.8c0.4,0.2,0.9,0.4,1.4,0.6c-0.2,0.7-0.3,1.4-0.3,2.3h-2.2
		C97.2,20.6,97.5,19.6,98.2,18.8z M98.2,24.9c-0.2-0.2-0.3-0.5-0.5-0.8c0,0,0-0.1,0-0.1l0,0c0,0,0,0,0,0c-0.3-0.6-0.5-1.2-0.5-1.9
		h2.2c0,0.8,0.1,1.6,0.3,2.3C99.1,24.5,98.6,24.6,98.2,24.9z M98.4,25.2c0.4-0.2,0.8-0.4,1.3-0.5c0.3,0.8,0.6,1.5,1.1,1.9
		C99.9,26.4,99.1,25.9,98.4,25.2z M100.1,24.6c0.5-0.1,1.1-0.2,1.7-0.2v2.3C101.2,26.6,100.5,25.8,100.1,24.6z M102.3,26.8v-2.3
		c0.6,0,1.2,0.1,1.7,0.2C103.7,25.8,103,26.6,102.3,26.8z M103.4,26.6c0.4-0.4,0.8-1.1,1.1-1.9c0.5,0.1,0.9,0.3,1.3,0.5
		C105.1,25.9,104.3,26.4,103.4,26.6z M104.6,24.3c0.2-0.7,0.3-1.5,0.3-2.3h2.2c0,1.1-0.4,2-1,2.8C105.6,24.6,105.1,24.5,104.6,24.3z
		"/>
</g>
</svg>
