<svg xmlns="http://www.w3.org/2000/svg" xmlns:xlink="http://www.w3.org/1999/xlink" width="24" height="21" viewBox="0 0 24 21">
  <metadata><?xpacket begin="﻿" id="W5M0MpCehiHzreSzNTczkc9d"?>
<x:xmpmeta xmlns:x="adobe:ns:meta/" x:xmptk="Adobe XMP Core 5.6-c138 79.159824, 2016/09/14-01:09:01        ">
   <rdf:RDF xmlns:rdf="http://www.w3.org/1999/02/22-rdf-syntax-ns#">
      <rdf:Description rdf:about=""/>
   </rdf:RDF>
</x:xmpmeta>
                                                                                                    
                                                                                                    
                                                                                                    
                                                                                                    
                                                                                                    
                                                                                                    
                                                                                                    
                                                                                                    
                                                                                                    
                                                                                                    
                                                                                                    
                                                                                                    
                                                                                                    
                                                                                                    
                                                                                                    
                                                                                                    
                                                                                                    
                                                                                                    
                                                                                                    
                                                                                                    
                           
<?xpacket end="w"?></metadata>
<defs>
    <style>
      .cls-1 {
        fill-rule: evenodd;
        fill: url(#linear-gradient);
      }
    </style>
    <linearGradient id="linear-gradient" x1="166.5" y1="1467" x2="187.5" y2="1488" gradientUnits="userSpaceOnUse">
      <stop offset="0" stop-color="#f33573"/>
      <stop offset="1" stop-color="#ffc066"/>
    </linearGradient>
  </defs>
  <path id="Inbox_Icon" data-name="Inbox Icon" class="cls-1" d="M185.988,1488H168.01a3,3,0,0,1-3.01-2.99v-7.51a1.554,1.554,0,0,1,.075-0.48l2.766-8.29a2.6,2.6,0,0,1,2.424-1.73h13.47a2.6,2.6,0,0,1,2.424,1.73l2.764,8.29a1.554,1.554,0,0,1,.075.48v7.51A3,3,0,0,1,185.988,1488Zm-2.568-18H170.58l-2,6h4.173a1.367,1.367,0,0,1,.529.1,0.943,0.943,0,0,1,.15.08,1.272,1.272,0,0,1,.3.2c0.044,0.04.089,0.08,0.127,0.12a1.781,1.781,0,0,1,.21.31c0.027,0.05.051,0.09,0.075,0.14a0.19,0.19,0,0,0,.024.05,3,3,0,0,0,5.658,0,0.167,0.167,0,0,1,.025-0.05c0.023-.04.045-0.09,0.076-0.14a1.577,1.577,0,0,1,.209-0.31c0.038-.04.081-0.08,0.126-0.12a1.247,1.247,0,0,1,.3-0.2l0.15-.08a1.572,1.572,0,0,1,.529-0.1h4.174Zm2.58,9h-3.815a5.982,5.982,0,0,1-10.371,0H168v6.01c0-.01,0-0.01.01-0.01h17.979c0.011,0,.011,0,0.011.01V1479Z" transform="translate(-165 -1467)"/>
</svg>
