<svg xmlns="http://www.w3.org/2000/svg" xmlns:xlink="http://www.w3.org/1999/xlink" viewBox="140 337 800 400"><defs><style>.cls-1,.cls-13,.cls-14,.cls-15,.cls-16,.cls-17,.cls-18,.cls-19,.cls-20,.cls-21{fill:none;}.cls-2{clip-path:url(#clip-path);}.cls-3{fill:#0093ff;}.cls-4{fill:#0481ed;}.cls-5{fill:#086edb;}.cls-6{fill:#0c5cc8;}.cls-7{fill:#104ab6;}.cls-8{fill:#1337a4;}.cls-9{fill:#172592;}.cls-10{fill:#1b127f;}.cls-11{fill:#1f006d;}.cls-12,.cls-20{opacity:0.3;}.cls-13,.cls-14,.cls-15,.cls-16,.cls-17,.cls-18,.cls-19,.cls-20,.cls-21{stroke:#fff;stroke-miterlimit:10;}.cls-14{opacity:0.9;}.cls-15{opacity:0.8;}.cls-16{opacity:0.7;}.cls-17{opacity:0.6;}.cls-18{opacity:0.5;}.cls-19{opacity:0.4;}.cls-21{opacity:0.2;}</style><clipPath id="clip-path" transform="translate(121.57 363.18)"><rect class="cls-1" y="-26.28" width="800" height="400.74"/></clipPath></defs><title>main-background</title><g id="Background"><g class="cls-2"><circle class="cls-3" cx="399.46" cy="157.85" r="521.03" transform="translate(126.95 691.87) rotate(-45)"/><circle class="cls-4" cx="378.62" cy="160.95" r="468.42" transform="translate(118.66 678.05) rotate(-45)"/><circle class="cls-5" cx="357.78" cy="164.05" r="415.82" transform="translate(110.36 664.22) rotate(-45)"/><circle class="cls-6" cx="336.93" cy="167.16" r="363.21" transform="translate(102.06 650.39) rotate(-45)"/><circle class="cls-7" cx="316.09" cy="170.26" r="310.61" transform="translate(93.76 636.56) rotate(-45)"/><circle class="cls-8" cx="295.25" cy="173.36" r="258" transform="translate(85.46 622.73) rotate(-45)"/><circle class="cls-9" cx="274.41" cy="176.46" r="205.4" transform="translate(77.17 608.9) rotate(-45)"/><circle class="cls-10" cx="253.57" cy="179.56" r="152.79" transform="translate(68.87 595.07) rotate(-45)"/><circle class="cls-11" cx="354.29" cy="545.85" r="100.18"/></g></g><g id="Objects"><g class="cls-12"><path class="cls-13" d="M192.13,186.82a41.36,41.36,0,1,1,41.36,41.37A41.36,41.36,0,0,1,192.13,186.82Z" transform="translate(121.57 363.18)"/><path class="cls-14" d="M296.42,186.82a62.93,62.93,0,1,1-62.93-62.93A62.93,62.93,0,0,1,296.42,186.82Z" transform="translate(121.57 363.18)"/><circle class="cls-15" cx="233.49" cy="186.82" r="84.5" transform="translate(113.23 725.89) rotate(-74.69)"/><circle class="cls-16" cx="233.49" cy="186.82" r="106.07" transform="translate(116.84 730.75) rotate(-75.85)"/><circle class="cls-17" cx="233.49" cy="186.82" r="127.64" transform="translate(57.85 583) rotate(-45)"/><circle class="cls-18" cx="233.49" cy="186.82" r="149.21" transform="translate(57.85 583) rotate(-45)"/><circle class="cls-19" cx="233.49" cy="186.82" r="170.78" transform="translate(57.85 583) rotate(-45)"/><circle class="cls-20" cx="233.49" cy="186.82" r="192.34" transform="translate(57.85 583) rotate(-45)"/><circle class="cls-21" cx="233.49" cy="186.82" r="213.91" transform="translate(57.85 583) rotate(-45)"/></g><rect class="cls-1" x="121.57" y="336.07" width="800" height="400.74"/><circle class="cls-11" cx="356.24" cy="549.83" r="91.4"/></g></svg>
